<?xml version="1.0" standalone="no"?>
<!DOCTYPE svg PUBLIC "-//W3C//DTD SVG 20010904//EN"
 "http://www.w3.org/TR/2001/REC-SVG-20010904/DTD/svg10.dtd">
<svg version="1.0" xmlns="http://www.w3.org/2000/svg"
 width="145.000000pt" height="145.000000pt" viewBox="0 0 145.000000 145.000000"
 preserveAspectRatio="xMidYMid meet">
<metadata>
Created by potrace 1.14, written by Peter Selinger 2001-2017
</metadata>
<g transform="translate(0.000000,145.000000) scale(0.100000,-0.100000)"
fill="#000000" stroke="none">
<path d="M10 1332 c0 -10 86 -205 132 -302 40 -83 42 -143 8 -295 -10 -45 -17
-83 -26 -135 -6 -35 -5 -36 45 -59 239 -108 344 -162 363 -187 12 -16 25 -31
28 -34 4 -3 41 -49 84 -102 43 -54 82 -98 86 -98 4 0 14 10 23 23 8 12 29 38
46 57 17 19 57 68 89 108 l57 74 193 94 c105 51 192 97 192 101 0 10 -48 268
-59 314 -7 32 1 56 80 235 49 109 89 202 89 206 0 11 -16 6 -372 -112 l-338
-111 -327 106 c-181 58 -338 110 -351 115 -28 12 -42 13 -42 2z"/>
</g>
</svg>
