<svg width="20" height="20" viewBox="0 0 20 20" fill="none" xmlns="http://www.w3.org/2000/svg">
<path d="M19.7001 12.42C18.3653 17.7766 12.9383 21.0369 7.58011 19.7001C2.22191 18.3633 -1.03679 12.9389 0.300107 7.58182C1.63701 2.2247 7.06131 -1.03701 12.4183 0.299995C17.7753 1.637 21.037 7.06161 19.7001 12.42Z" fill="#F7931A"/>
<path d="M14.41 8.57529C14.6088 7.2446 13.5956 6.5292 12.2101 6.052L12.66 4.24951L11.5625 3.97611L11.1241 5.7312C10.8359 5.6594 10.5397 5.5912 10.2453 5.5244L10.6853 3.75771L9.58877 3.48431L9.14007 5.28611L6.92689 4.73791L6.63489 5.91C6.63489 5.91 7.44908 6.0966 7.43188 6.1082C7.87628 6.2192 7.95688 6.5132 7.94328 6.7464L6.71189 11.6844C6.65749 11.8194 6.51969 12.0218 6.20909 11.9444C6.22009 11.9604 5.4115 11.7444 5.4115 11.7444L4.8667 13.0023L7.07668 13.5603L6.62249 15.3838L7.71848 15.6572L8.16848 13.8533C8.46848 13.9345 8.75847 14.0095 9.04267 14.0801L8.59448 15.8756L9.69187 16.149L10.1461 14.329C12.0174 14.683 13.4245 14.5402 14.016 12.849C14.4932 11.4865 13.9926 10.7005 13.008 10.1877C13.725 10.0217 14.265 9.55028 14.4091 8.57599L14.41 8.57529ZM11.9021 12.0912C11.5621 13.4537 9.26857 12.7174 8.52438 12.5324L9.12697 10.1169C9.87077 10.3025 12.2559 10.6701 11.9025 12.091L11.9021 12.0912ZM12.2425 8.55599C11.9331 9.79598 10.0234 9.16599 9.40357 9.01139L9.94917 6.82C10.5692 6.9748 12.5643 7.263 12.2417 8.55589" fill="white"/>
</svg>
