<svg width="64" height="64" viewBox="0 0 64 64" fill="none" xmlns="http://www.w3.org/2000/svg">
<circle cx="32" cy="32" r="32" fill="#0A122E"/>
<path d="M41.1636 23.781C39.5701 23.0259 37.8614 22.4696 36.0749 22.151C36.0424 22.1448 36.0099 22.1602 35.9931 22.1909C35.7733 22.5946 35.5299 23.1212 35.3595 23.5351C33.4379 23.238 31.5262 23.238 29.6441 23.5351C29.4736 23.112 29.2213 22.5946 29.0006 22.1909C28.9838 22.1612 28.9513 22.1459 28.9188 22.151C27.1332 22.4686 25.4245 23.0249 23.8301 23.781C23.8163 23.7871 23.8045 23.7974 23.7967 23.8107C20.5556 28.8112 19.6678 33.6888 20.1033 38.5059C20.1053 38.5295 20.1181 38.552 20.1358 38.5663C22.2742 40.1881 24.3455 41.1726 26.3784 41.8252C26.411 41.8355 26.4454 41.8232 26.4661 41.7955C26.947 41.1173 27.3757 40.4022 27.7432 39.6502C27.7649 39.6062 27.7442 39.5539 27.6999 39.5365C27.0199 39.2702 26.3725 38.9454 25.7497 38.5766C25.7005 38.5469 25.6965 38.4741 25.7418 38.4393C25.8729 38.3379 26.004 38.2323 26.1291 38.1258C26.1518 38.1063 26.1833 38.1022 26.2099 38.1145C30.3013 40.0436 34.7308 40.0436 38.7739 38.1145C38.8005 38.1012 38.8321 38.1053 38.8557 38.1248C38.9809 38.2313 39.1119 38.3379 39.244 38.4393C39.2893 38.4741 39.2863 38.5469 39.2371 38.5766C38.6143 38.9526 37.9669 39.2702 37.2859 39.5355C37.2416 39.5529 37.2219 39.6062 37.2436 39.6502C37.619 40.4012 38.0477 41.1163 38.5197 41.7945C38.5394 41.8232 38.5749 41.8355 38.6074 41.8252C40.6501 41.1726 42.7215 40.1881 44.8598 38.5663C44.8786 38.552 44.8904 38.5305 44.8924 38.5069C45.4136 32.9378 44.0193 28.1002 41.1961 23.8117C41.1892 23.7974 41.1774 23.7871 41.1636 23.781ZM28.3542 35.5728C27.1224 35.5728 26.1074 34.4049 26.1074 32.9706C26.1074 31.5363 27.1027 30.3684 28.3542 30.3684C29.6155 30.3684 30.6206 31.5466 30.6009 32.9706C30.6009 34.4049 29.6056 35.5728 28.3542 35.5728ZM36.6612 35.5728C35.4294 35.5728 34.4145 34.4049 34.4145 32.9706C34.4145 31.5363 35.4097 30.3684 36.6612 30.3684C37.9225 30.3684 38.9276 31.5466 38.908 32.9706C38.908 34.4049 37.9225 35.5728 36.6612 35.5728Z" fill="#FFE001"/>
</svg>
