<svg width="13" height="20" viewBox="0 0 13 20" fill="none" xmlns="http://www.w3.org/2000/svg">
<path d="M0 10.716V17.2002L3.7922 13.408V8.51718L0 10.716Z" fill="url(#paint0_linear)"/>
<path fill-rule="evenodd" clip-rule="evenodd" d="M12.7249 0.000232476C12.7251 0.000159073 12.7252 0.000103921 12.7254 3.05176e-05C12.7254 3.05176e-05 12.7252 0.000324152 12.7249 0.000948081V0.000232476ZM12.7245 0.000415884C11.4114 0.578669 9.72526 1.02197 8.02779 1.46824C5.56968 2.11451 3.0878 2.76702 1.68056 3.8446C0.112889 5.04569 0.0240711 7.40799 0.019043 7.68685C0.121955 6.56783 0.738928 5.64792 1.77028 5.06405C2.02059 4.92145 2.28688 4.80795 2.56045 4.71919L7.71761 3.04427C9.60189 2.4346 11.316 1.39137 12.7245 0.000415884Z" fill="url(#paint1_linear)"/>
<path d="M0 11.8699V8.02532C0 6.75349 0.633012 5.70577 1.7666 5.06402C2.01689 4.92142 2.28318 4.80792 2.55675 4.71916L7.71392 3.04424C9.59837 2.43451 11.3126 1.39116 12.7212 0V4.13125C12.7212 5.08586 12.3108 5.99388 11.5934 6.62397C11.2849 6.89465 10.9299 7.10565 10.5442 7.2468L3.45168 9.85158C2.19004 10.3143 1.02154 10.9968 0 11.8699Z" fill="url(#paint2_linear)"/>
<path d="M0 20V15.4366C0 13.8082 1.04919 12.3647 2.59751 11.8612L7.71392 10.2008C11.5643 8.74712 11.9907 8.39787 12.7212 7.15515V11.2078C12.7212 12.2119 12.289 13.168 11.5352 13.8301C11.2646 14.0673 10.9604 14.2622 10.6316 14.4063L3.51281 17.065C3.45752 17.0853 3.40076 17.1072 3.34547 17.129C2.10128 17.6282 1.04191 18.5011 0.276492 19.6012L0 20Z" fill="url(#paint3_linear)"/>
<defs>
<linearGradient id="paint0_linear" x1="1.68962" y1="12.5228" x2="0.758311" y2="11.0094" gradientUnits="userSpaceOnUse">
<stop offset="0.2598" stop-color="#6199F5"/>
<stop offset="0.3638" stop-color="#5B92F5"/>
<stop offset="0.5131" stop-color="#4B7FF5"/>
<stop offset="0.6889" stop-color="#3260F4"/>
<stop offset="0.7682" stop-color="#2450F4"/>
<stop offset="0.839" stop-color="#2450F4"/>
</linearGradient>
<linearGradient id="paint1_linear" x1="-1.22729" y1="4.43602" x2="14.8894" y2="1.44609" gradientUnits="userSpaceOnUse">
<stop stop-color="#7AB8F5"/>
<stop offset="0.1169" stop-color="#74B0F5"/>
<stop offset="0.5188" stop-color="#6199F5"/>
<stop offset="0.6106" stop-color="#5B92F5"/>
<stop offset="0.7424" stop-color="#4B7FF5"/>
<stop offset="0.8976" stop-color="#3260F4"/>
<stop offset="0.9675" stop-color="#2450F4"/>
</linearGradient>
<linearGradient id="paint2_linear" x1="-36.0755" y1="19.9506" x2="15.2054" y2="4.87097" gradientUnits="userSpaceOnUse">
<stop stop-color="#7AB8F5"/>
<stop offset="0.1169" stop-color="#74B0F5"/>
<stop offset="0.5188" stop-color="#6199F5"/>
<stop offset="0.6106" stop-color="#5B92F5"/>
<stop offset="0.7424" stop-color="#4B7FF5"/>
<stop offset="0.8976" stop-color="#3260F4"/>
<stop offset="0.9675" stop-color="#2450F4"/>
</linearGradient>
<linearGradient id="paint3_linear" x1="-7.91669e-08" y1="20.4026" x2="12.9718" y2="13.3915" gradientUnits="userSpaceOnUse">
<stop stop-color="#5F96F5"/>
<stop offset="1" stop-color="#2450F4"/>
</linearGradient>
</defs>
</svg>
