<svg width="20" height="24" viewBox="0 0 20 24" fill="none" xmlns="http://www.w3.org/2000/svg">
<g clip-path="url(#clip0)">
<path d="M5.68173 22.9988L6.0907 20.4011L5.1797 20.38H0.82959L3.85269 1.21152C3.86208 1.15366 3.89258 1.0997 3.93715 1.06138C3.98172 1.02307 4.0388 1.00195 4.09823 1.00195H11.4331C13.8682 1.00195 15.5487 1.50867 16.426 2.50881C16.8373 2.978 17.0993 3.46829 17.226 4.00785C17.3589 4.574 17.3613 5.25041 17.2315 6.07539L17.2221 6.1356V6.66421L17.6334 6.89724C17.9798 7.08101 18.2551 7.29136 18.4662 7.5322C18.8181 7.93336 19.0456 8.4432 19.1418 9.04767C19.2411 9.66933 19.2083 10.4091 19.0456 11.2466C18.858 12.21 18.5546 13.049 18.1448 13.7356C17.7679 14.3682 17.2878 14.8929 16.7177 15.2995C16.1734 15.6858 15.5268 15.9791 14.7956 16.1667C14.0871 16.3513 13.2794 16.4443 12.3934 16.4443H11.8226C11.4144 16.4443 11.0179 16.5914 10.7067 16.8549C10.3947 17.1239 10.1882 17.4914 10.1249 17.8933L10.0819 18.1271L9.35934 22.7056L9.3265 22.8737C9.3179 22.9269 9.30304 22.9535 9.28115 22.9715C9.2616 22.9879 9.23345 22.9988 9.20608 22.9988H5.68173Z" fill="#253B80"/>
<path d="M18.0229 6.19659C18.001 6.33657 17.976 6.47967 17.9478 6.62668C16.9805 11.593 13.6712 13.3086 9.44467 13.3086H7.29268C6.7758 13.3086 6.34024 13.684 6.25969 14.1938L5.1579 21.1815L4.84589 23.1623C4.7935 23.497 5.05155 23.7988 5.38936 23.7988H9.20617C9.65815 23.7988 10.0421 23.4704 10.1133 23.0246L10.1508 22.8307L10.8694 18.2702L10.9156 18.02C10.9859 17.5727 11.3707 17.2443 11.8226 17.2443H12.3935C16.0914 17.2443 18.9863 15.7429 19.8324 11.3983C20.1858 9.58332 20.0029 8.06785 19.0676 7.00203C18.7845 6.68063 18.4334 6.41398 18.0229 6.19659Z" fill="#179BD7"/>
<path d="M17.0111 5.79312C16.8633 5.75011 16.7108 5.71101 16.5544 5.67582C16.3973 5.64142 16.2362 5.61092 16.0704 5.58433C15.4902 5.4905 14.8544 5.44592 14.1733 5.44592H8.42427C8.28273 5.44592 8.14823 5.47798 8.02781 5.53585C7.76272 5.66331 7.56566 5.91432 7.51796 6.22164L6.29495 13.9679L6.25977 14.1938C6.34031 13.684 6.77587 13.3087 7.29275 13.3087H9.44474C13.6713 13.3087 16.9806 11.5922 17.9479 6.6267C17.9768 6.47969 18.0011 6.33659 18.023 6.19662C17.7782 6.06681 17.5131 5.95577 17.2277 5.86115C17.1573 5.83769 17.0846 5.81501 17.0111 5.79312Z" fill="#222D65"/>
<path d="M7.51787 6.22164C7.56557 5.91432 7.76263 5.66331 8.02772 5.53663C8.14893 5.47876 8.28264 5.4467 8.42418 5.4467H14.1732C14.8543 5.4467 15.4901 5.49128 16.0703 5.58511C16.2361 5.6117 16.3972 5.6422 16.5543 5.6766C16.7107 5.71179 16.8632 5.75089 17.011 5.7939C17.0845 5.81579 17.1572 5.83847 17.2284 5.86115C17.5138 5.95577 17.7789 6.06759 18.0237 6.19661C18.3114 4.36133 18.0213 3.11173 17.029 1.98022C15.935 0.734538 13.9605 0.201233 11.434 0.201233H4.09909C3.58299 0.201233 3.14274 0.57658 3.06298 1.08721L0.00781098 20.4528C-0.0524009 20.8359 0.243185 21.1816 0.629479 21.1816H5.15788L6.29487 13.9679L7.51787 6.22164Z" fill="#253B80"/>
</g>
<defs>
<clipPath id="clip0">
<rect width="20" height="23.5976" fill="white" transform="translate(0 0.201233)"/>
</clipPath>
</defs>
</svg>
