<svg width="20" height="22" viewBox="0 0 20 22" fill="none" xmlns="http://www.w3.org/2000/svg">
<path fill-rule="evenodd" clip-rule="evenodd" d="M13.8402 18.7748C15.6024 18.7748 17.5141 19.3778 19.6308 21.2493C19.8428 21.4366 20.1251 21.2037 19.9398 20.9708C17.8602 18.3501 15.9367 17.8512 14.0185 17.4296C11.6715 16.9132 10.4649 15.5953 9.62383 14.1486C9.45665 13.8611 9.3812 13.9119 9.36624 14.282C9.34737 14.7341 9.37925 15.3332 9.48072 15.9225C9.38575 15.9264 9.29078 15.9257 9.19451 15.9257C5.83804 15.9257 3.11644 13.2093 3.11644 9.85873C3.11644 6.50877 5.83804 3.79302 9.19516 3.79302C12.5516 3.79302 15.2732 6.50877 15.2732 9.85873C15.2732 10.0975 15.2615 10.3336 15.2342 10.5645C14.7906 10.4845 13.917 10.4754 13.3042 10.5281C13.074 10.5482 13.1065 10.6556 13.2808 10.6868C15.2901 11.0491 16.6698 12.2922 16.9859 14.5474C16.9924 14.5994 17.0614 14.6144 17.0881 14.5695C17.9424 13.1469 18.3925 11.5182 18.3897 9.85873C18.3897 4.7915 14.2728 0.682434 9.19516 0.682434C4.11688 0.682434 0 4.79085 0 9.85873C0 14.9273 4.11688 19.0363 9.19516 19.0363C10.5416 19.0363 11.879 18.7748 13.8402 18.7748ZM14.5245 15.4431C14.9337 15.7878 15.0579 16.1983 14.842 16.4878C14.7216 16.6465 14.5265 16.7343 14.2923 16.7343C14.0639 16.7343 13.8426 16.6542 13.6672 16.5079C13.2951 16.1833 13.1858 15.6577 13.4285 15.3592C13.5234 15.2421 13.6776 15.1777 13.8623 15.1777C14.0868 15.1777 14.3222 15.272 14.5245 15.4431ZM16.4122 14.5662C16.4721 14.9682 16.3452 15.1348 16.2171 15.1348C16.0772 15.1348 15.9022 14.9721 15.696 14.6502C15.4918 14.3327 15.417 13.9685 15.5185 13.7844C15.5848 13.6627 15.7247 13.6094 15.9009 13.6764C16.2424 13.8045 16.3758 14.3262 16.4122 14.5662Z" fill="#FF8C00"/>
</svg>
