<svg width="64" height="64" viewBox="0 0 64 64" fill="none" xmlns="http://www.w3.org/2000/svg">
<circle cx="32" cy="32" r="32" fill="#0A122E"/>
<path d="M39.9539 22.1766C39.9539 22.1766 42.1741 21.3108 41.989 23.4133C41.9274 24.279 41.3723 27.309 40.9406 30.5864L39.4605 40.2948C39.4605 40.2948 39.3372 41.717 38.2271 41.9644C37.117 42.2117 35.4519 41.0987 35.1435 40.8513C34.8968 40.6658 30.5181 37.8831 28.9764 36.5227C28.5447 36.1517 28.0513 35.4097 29.038 34.5439L35.5135 28.3603C36.2536 27.6182 36.9937 25.8868 33.9101 27.9892L25.2761 33.8637C25.2761 33.8637 24.2893 34.4821 22.4392 33.9256L18.4305 32.6888C18.4305 32.6888 16.9504 31.7613 19.4789 30.8337C25.6461 27.9274 33.2317 24.9592 39.9539 22.1766Z" fill="#FFE001"/>
</svg>
