<svg width="20" height="14" viewBox="0 0 20 14" fill="none" xmlns="http://www.w3.org/2000/svg">
<path d="M12.8863 0.0449524C8.91741 0.0449524 5.77319 3.16967 5.77319 7C5.77319 10.8303 8.96893 13.9551 12.8863 13.9551C16.8037 13.9551 19.9995 10.8303 19.9995 7C20.051 3.16967 16.8037 0.0449524 12.8863 0.0449524ZM12.8863 9.57033C11.4431 9.57033 10.206 8.41115 10.206 7C10.206 5.58882 11.3915 4.42965 12.8863 4.42965C14.3811 4.42965 15.5667 5.58882 15.5667 7C15.5151 8.41115 14.3811 9.57033 12.8863 9.57033Z" fill="#8B3FFD"/>
<path d="M5.773 2.11136V12.2415H3.24729L0 2.11136H5.773Z" fill="#8B3FFD"/>
</svg>
